<svg width="105" height="32" viewBox="0 0 105 32" fill="none" xmlns="http://www.w3.org/2000/svg">
<g clip-path="url(#clip0_12_94)">
<path d="M17 0L20.7771 12.2229H33L23.1115 19.7771L26.8885 32L17 24.4458L7.11146 32L10.8885 19.7771L1 12.2229H13.2229L17 0Z" fill="url(#paint0_linear_12_94)"/>
<path d="M23 18C23 21.3137 20.3137 24 17 24C13.6863 24 11 21.3137 11 18C11 14.6863 13.6863 12 17 12C20.3137 12 23 14.6863 23 18Z" fill="url(#paint1_linear_12_94)"/>
<line x1="29.9125" y1="3.40906" x2="16.9125" y2="32.4091" stroke="black" stroke-width="2"/>
<line x1="3.91251" y1="2.59094" x2="16.9125" y2="31.5909" stroke="black" stroke-width="2"/>
</g>
<g clip-path="url(#clip1_12_94)">
<path d="M43.48 25L37.36 8.2H40.816L45.472 21.688L50.152 8.2H53.584L47.464 25H43.48ZM55.6013 25V12.904H58.8413V25H55.6013ZM57.2333 11.248C56.6573 11.248 56.1773 11.08 55.7933 10.744C55.4253 10.392 55.2413 9.952 55.2413 9.424C55.2413 8.896 55.4253 8.464 55.7933 8.128C56.1773 7.776 56.6573 7.6 57.2333 7.6C57.8253 7.6 58.3053 7.776 58.6733 8.128C59.0573 8.464 59.2493 8.896 59.2493 9.424C59.2493 9.952 59.0573 10.392 58.6733 10.744C58.3053 11.08 57.8253 11.248 57.2333 11.248ZM70.0353 25L64.8753 18.376L69.5073 12.904H73.3233L67.3473 19.744V17.176L74.0673 25H70.0353ZM62.1152 25V7.72H65.3553V25H62.1152ZM76.0623 25V12.904H79.3023V25H76.0623ZM77.6943 11.248C77.1183 11.248 76.6383 11.08 76.2543 10.744C75.8863 10.392 75.7023 9.952 75.7023 9.424C75.7023 8.896 75.8863 8.464 76.2543 8.128C76.6383 7.776 77.1183 7.6 77.6943 7.6C78.2863 7.6 78.7663 7.776 79.1343 8.128C79.5183 8.464 79.7103 8.896 79.7103 9.424C79.7103 9.952 79.5183 10.392 79.1343 10.744C78.7663 11.08 78.2863 11.248 77.6943 11.248Z" fill="black"/>
</g>
<defs>
<linearGradient id="paint0_linear_12_94" x1="17" y1="0" x2="17" y2="32" gradientUnits="userSpaceOnUse">
<stop stop-color="#FA0AF2"/>
<stop offset="1" stop-color="#0D0694"/>
</linearGradient>
<linearGradient id="paint1_linear_12_94" x1="17.5441" y1="9.5" x2="17.5441" y2="21.5" gradientUnits="userSpaceOnUse">
<stop stop-color="#FA0AF2"/>
<stop offset="1" stop-color="#0D0694"/>
</linearGradient>
<clipPath id="clip0_12_94">
<rect width="34" height="32" fill="white"/>
</clipPath>
<clipPath id="clip1_12_94">
<rect width="68" height="30" fill="white" transform="translate(37 2)"/>
</clipPath>
</defs>
</svg>
