<svg width="34" height="32" viewBox="0 0 34 32" fill="none" xmlns="http://www.w3.org/2000/svg">
<g clip-path="url(#clip0_12_94)">
<path d="M17 0L20.7771 12.2229H33L23.1115 19.7771L26.8885 32L17 24.4458L7.11146 32L10.8885 19.7771L1 12.2229H13.2229L17 0Z" fill="url(#paint0_linear_12_94)"/>
<path d="M23 18C23 21.3137 20.3137 24 17 24C13.6863 24 11 21.3137 11 18C11 14.6863 13.6863 12 17 12C20.3137 12 23 14.6863 23 18Z" fill="url(#paint1_linear_12_94)"/>
<line x1="29.9125" y1="3.40906" x2="16.9125" y2="32.4091" stroke="black" stroke-width="2"/>
<line x1="3.91251" y1="2.59094" x2="16.9125" y2="31.5909" stroke="black" stroke-width="2"/>
</g>
<defs>
<linearGradient id="paint0_linear_12_94" x1="17" y1="0" x2="17" y2="32" gradientUnits="userSpaceOnUse">
<stop stop-color="#FA0AF2"/>
<stop offset="1" stop-color="#0D0694"/>
</linearGradient>
<linearGradient id="paint1_linear_12_94" x1="17.5441" y1="9.5" x2="17.5441" y2="21.5" gradientUnits="userSpaceOnUse">
<stop stop-color="#FA0AF2"/>
<stop offset="1" stop-color="#0D0694"/>
</linearGradient>
<clipPath id="clip0_12_94">
<rect width="34" height="32" fill="white"/>
</clipPath>
</defs>
</svg>
